<svg width="26" height="28" viewBox="0 0 26 28" fill="none" xmlns="http://www.w3.org/2000/svg">
<g id="Vector 1 1" clip-path="url(#clip0_1_520)">
<path id="Vector" d="M0.0537109 3.04813V9.3103C1.54477 8.52404 3.33392 8.90356 4.2285 9.74392L8.75561 13.3222L9.81284 3.99693L3.52368 0.662602C2.05982 0.147553 0.0537129 1.55708 0.0537109 3.04813Z" fill="#4CAF4F"/>
<path id="Vector_2" d="M4.33758 26.985L0.0273438 15.735C0.0273438 15.735 0.0544533 21.9129 0.0544522 25.1958C0.0544519 26.3344 1.93625 27.7438 3.47011 27.3645C3.82907 27.2758 4.33758 26.985 4.33758 26.985Z" fill="#4CAF4F"/>
<path id="Vector_3" d="M8.4034 24.7349L5.15039 16.1957C5.15039 16.1957 7.83413 18.3915 8.99979 19.2861C10.1655 20.1807 11.9817 19.3945 12.2528 17.9307C12.5239 16.4668 12.8763 11.9126 12.8763 11.9126L16.1293 20.5602L8.4034 24.7349Z" fill="#4CAF4F"/>
<path id="Vector_4" d="M19.8434 18.2018L15.75 7.25C15.75 7.25 22.3916 10.6386 23.9367 11.7771C25.4819 12.9157 24.7214 15.715 23.9367 16.0602C23.259 16.3584 19.8434 18.2018 19.8434 18.2018Z" fill="#4CAF4F"/>
</g>
<defs>
<clipPath id="clip0_1_520">
<rect width="25.2651" height="27" fill="white" transform="translate(0 0.5)"/>
</clipPath>
</defs>
</svg>
