<svg width="36" height="36" viewBox="0 0 36 36" fill="none" xmlns="http://www.w3.org/2000/svg">
<g id="phone-square-alt">
<path id="Vector" d="M30.3496 2.74048H6.28711C5.41687 2.74048 4.58227 3.08618 3.96692 3.70153C3.35156 4.31689 3.00586 5.15149 3.00586 6.02173L3.00586 30.0842C3.00586 30.9545 3.35156 31.7891 3.96692 32.4044C4.58227 33.0198 5.41687 33.3655 6.28711 33.3655H30.3496C31.2199 33.3655 32.0545 33.0198 32.6698 32.4044C33.2852 31.7891 33.6309 30.9545 33.6309 30.0842V6.02173C33.6309 5.15149 33.2852 4.31689 32.6698 3.70153C32.0545 3.08618 31.2199 2.74048 30.3496 2.74048ZM29.2292 23.7521L28.2038 28.1955C28.1517 28.4214 28.0246 28.6229 27.8432 28.7673C27.6619 28.9117 27.4369 28.9904 27.2051 28.9905C16.2676 28.9905 7.38086 20.1236 7.38086 9.16626C7.389 8.93661 7.47063 8.71563 7.61374 8.53585C7.75686 8.35606 7.9539 8.22696 8.17588 8.16753L12.6192 7.14214C12.695 7.12611 12.7722 7.11719 12.8496 7.11548C13.0479 7.12549 13.2399 7.18839 13.4057 7.29766C13.5714 7.40693 13.7049 7.55858 13.7923 7.73687L15.8431 12.522C15.8933 12.651 15.9213 12.7876 15.9258 12.926C15.9091 13.2296 15.7741 13.5145 15.5498 13.7197L12.9597 15.8388C14.5291 19.1651 17.2062 21.8423 20.5325 23.4117L22.6517 20.8215C22.8569 20.5972 23.1418 20.4622 23.4453 20.4456C23.5837 20.45 23.7203 20.478 23.8493 20.5283L28.6345 22.5791C28.8128 22.6663 28.9646 22.7998 29.0739 22.9656C29.1831 23.1313 29.246 23.3234 29.2559 23.5217C29.2545 23.5992 29.2456 23.6764 29.2292 23.7521Z" fill="black"/>
</g>
</svg>
