<svg width="31" height="31" viewBox="0 0 31 31" fill="none" xmlns="http://www.w3.org/2000/svg">
<g id="lock" clip-path="url(#clip0_1_757)">
<path id="Vector" d="M25.7109 14.0166H24.3047V9.79785C24.3047 4.8877 20.3086 0.891602 15.3984 0.891602C10.4883 0.891602 6.49219 4.8877 6.49219 9.79785V14.0166H5.08594C3.5332 14.0166 2.27344 15.2764 2.27344 16.8291V28.0791C2.27344 29.6318 3.5332 30.8916 5.08594 30.8916H25.7109C27.2637 30.8916 28.5234 29.6318 28.5234 28.0791V16.8291C28.5234 15.2764 27.2637 14.0166 25.7109 14.0166ZM19.6172 14.0166H11.1797V9.79785C11.1797 7.47168 13.0723 5.5791 15.3984 5.5791C17.7246 5.5791 19.6172 7.47168 19.6172 9.79785V14.0166Z" fill="black"/>
</g>
<defs>
<clipPath id="clip0_1_757">
<rect width="30" height="30" fill="white" transform="translate(0.398438 0.891602)"/>
</clipPath>
</defs>
</svg>
