<svg width="220" height="13" viewBox="0 0 220 13" fill="none" xmlns="http://www.w3.org/2000/svg">
<g id="Group 213">
<path id="Polygon 4" d="M219.637 6.31112L126.659 7.31763V5.3046L219.637 6.31112Z" fill="#FFAD0F"/>
<path id="Polygon 3" d="M0.363281 6.31112L93.3412 5.3046V7.31763L0.363281 6.31112Z" fill="#FFAD0F"/>
<g id="Star">
<path id="Vector" d="M98.8719 7.44186L100.092 8.21668C100.25 8.31595 100.443 8.16825 100.397 7.98666L100.044 6.59683C100.034 6.55831 100.036 6.51787 100.048 6.48017C100.061 6.44247 100.083 6.40905 100.114 6.38376L101.209 5.47093C101.351 5.35228 101.279 5.11257 101.092 5.10047L99.6637 5.00846C99.6247 5.00619 99.5873 4.99262 99.5559 4.9694C99.5245 4.94618 99.5005 4.91432 99.487 4.87771L98.9543 3.53631C98.9402 3.49754 98.9145 3.46406 98.8807 3.44039C98.8469 3.41673 98.8067 3.40404 98.7654 3.40404C98.7242 3.40404 98.6839 3.41673 98.6501 3.44039C98.6163 3.46406 98.5906 3.49754 98.5765 3.53631L98.0439 4.87771C98.0303 4.91432 98.0063 4.94618 97.975 4.9694C97.9436 4.99262 97.9061 5.00619 97.8671 5.00846L96.4385 5.10047C96.2521 5.11257 96.1795 5.35228 96.3223 5.47093L97.4167 6.38376C97.4473 6.40905 97.4702 6.44247 97.4826 6.48017C97.495 6.51787 97.4965 6.55831 97.487 6.59683L97.1601 7.88496C97.1044 8.10288 97.3368 8.27963 97.5233 8.16099L98.6589 7.44186C98.6907 7.42162 98.7277 7.41086 98.7654 7.41086C98.8031 7.41086 98.8401 7.42162 98.8719 7.44186V7.44186Z" fill="#FFAD0F" stroke="#FFAD0F" stroke-width="2" stroke-linecap="round" stroke-linejoin="round"/>
</g>
<g id="Star_2">
<path id="Vector_2" d="M110.974 9.15767L113.263 10.6105C113.558 10.7966 113.921 10.5197 113.835 10.1792L113.172 7.57323C113.154 7.501 113.157 7.42517 113.18 7.35449C113.203 7.28381 113.246 7.22114 113.303 7.17372L115.355 5.46216C115.623 5.2397 115.487 4.79025 115.138 4.76755L112.459 4.59503C112.386 4.59078 112.316 4.56533 112.257 4.52179C112.198 4.47826 112.153 4.41852 112.128 4.34988L111.129 1.83475C111.102 1.76207 111.054 1.69928 110.991 1.65491C110.927 1.61055 110.852 1.58675 110.775 1.58675C110.697 1.58675 110.622 1.61055 110.558 1.65491C110.495 1.69928 110.447 1.76207 110.421 1.83475L109.422 4.34988C109.396 4.41852 109.351 4.47826 109.293 4.52179C109.234 4.56533 109.163 4.59078 109.09 4.59503L106.412 4.76755C106.062 4.79025 105.926 5.2397 106.194 5.46216L108.246 7.17372C108.303 7.22114 108.346 7.28381 108.369 7.35449C108.393 7.42517 108.395 7.501 108.378 7.57323L107.765 9.98848C107.66 10.3971 108.096 10.7285 108.446 10.506L110.575 9.15767C110.635 9.1197 110.704 9.09954 110.775 9.09954C110.845 9.09954 110.915 9.1197 110.974 9.15767V9.15767Z" fill="#FFAD0F" stroke="#FFAD0F" stroke-width="2" stroke-linecap="round" stroke-linejoin="round"/>
</g>
<g id="Star_3">
<path id="Vector_3" d="M121.342 7.44186L122.562 8.21668C122.719 8.31595 122.913 8.16825 122.867 7.98666L122.514 6.59683C122.504 6.55831 122.506 6.51787 122.518 6.48017C122.53 6.44247 122.553 6.40905 122.584 6.38376L123.678 5.47093C123.821 5.35228 123.748 5.11257 123.562 5.10047L122.133 5.00846C122.094 5.00619 122.057 4.99262 122.026 4.9694C121.994 4.94618 121.97 4.91432 121.957 4.87771L121.424 3.53631C121.41 3.49754 121.384 3.46406 121.35 3.44039C121.317 3.41673 121.276 3.40404 121.235 3.40404C121.194 3.40404 121.154 3.41673 121.12 3.44039C121.086 3.46406 121.06 3.49754 121.046 3.53631L120.514 4.87771C120.5 4.91432 120.476 4.94618 120.445 4.9694C120.413 4.99262 120.376 5.00619 120.337 5.00846L118.908 5.10047C118.722 5.11257 118.649 5.35228 118.792 5.47093L119.886 6.38376C119.917 6.40905 119.94 6.44247 119.952 6.48017C119.965 6.51787 119.966 6.55831 119.957 6.59683L119.63 7.88496C119.574 8.10288 119.807 8.27963 119.993 8.16099L121.129 7.44186C121.16 7.42162 121.197 7.41086 121.235 7.41086C121.273 7.41086 121.31 7.42162 121.342 7.44186V7.44186Z" fill="#FFAD0F" stroke="#FFAD0F" stroke-width="2" stroke-linecap="round" stroke-linejoin="round"/>
</g>
</g>
</svg>
